<svg width="16" height="16" viewBox="0 0 16 16" fill="none" xmlns="http://www.w3.org/2000/svg">
<path d="M8.00017 1.33334C6.68162 1.33334 5.39269 1.72434 4.29636 2.45688C3.20004 3.18942 2.34555 4.23061 1.84097 5.44879C1.33638 6.66696 1.20436 8.00741 1.4616 9.30061C1.71883 10.5938 2.35377 11.7817 3.28612 12.7141C4.21847 13.6464 5.40636 14.2813 6.69956 14.5386C7.99277 14.7958 9.33321 14.6638 10.5514 14.1592C11.7696 13.6546 12.8108 12.8001 13.5433 11.7038C14.2758 10.6075 14.6668 9.31855 14.6668 8.00001C14.6668 7.12453 14.4944 6.25762 14.1594 5.44879C13.8243 4.63995 13.3333 3.90502 12.7142 3.28596C12.0952 2.66691 11.3602 2.17584 10.5514 1.84081C9.74255 1.50578 8.87564 1.33334 8.00017 1.33334ZM8.00017 13.3333C6.94533 13.3333 5.91419 13.0205 5.03712 12.4345C4.16006 11.8485 3.47648 11.0155 3.07281 10.041C2.66914 9.06645 2.56352 7.99409 2.76931 6.95953C2.9751 5.92496 3.48305 4.97465 4.22893 4.22877C4.97481 3.48289 5.92512 2.97494 6.95968 2.76916C7.99425 2.56337 9.0666 2.66899 10.0411 3.07265C11.0157 3.47632 11.8486 4.15991 12.4347 5.03697C13.0207 5.91403 13.3335 6.94518 13.3335 8.00001C13.3335 9.4145 12.7716 10.7711 11.7714 11.7712C10.7712 12.7714 9.41465 13.3333 8.00017 13.3333ZM10.6668 7.33334H8.66683V5.33334C8.66683 5.15653 8.59659 4.98696 8.47157 4.86194C8.34655 4.73691 8.17698 4.66668 8.00017 4.66668C7.82335 4.66668 7.65379 4.73691 7.52876 4.86194C7.40374 4.98696 7.3335 5.15653 7.3335 5.33334V7.33334H5.3335C5.15669 7.33334 4.98712 7.40358 4.86209 7.52861C4.73707 7.65363 4.66683 7.8232 4.66683 8.00001C4.66683 8.17682 4.73707 8.34639 4.86209 8.47141C4.98712 8.59644 5.15669 8.66668 5.3335 8.66668H7.3335V10.6667C7.3335 10.8435 7.40374 11.0131 7.52876 11.1381C7.65379 11.2631 7.82335 11.3333 8.00017 11.3333C8.17698 11.3333 8.34655 11.2631 8.47157 11.1381C8.59659 11.0131 8.66683 10.8435 8.66683 10.6667V8.66668H10.6668C10.8436 8.66668 11.0132 8.59644 11.1382 8.47141C11.2633 8.34639 11.3335 8.17682 11.3335 8.00001C11.3335 7.8232 11.2633 7.65363 11.1382 7.52861C11.0132 7.40358 10.8436 7.33334 10.6668 7.33334Z" fill="#A09EFF"/>
</svg>
