<svg width="28" height="23" viewBox="0 0 28 23" fill="none" xmlns="http://www.w3.org/2000/svg">
<path d="M17.5 5.175C16.856 5.175 16.3333 4.6598 16.3333 4.025V2.3H11.6667V4.025C11.6667 4.6598 11.144 5.175 10.5 5.175C9.856 5.175 9.33333 4.6598 9.33333 4.025V2.3C9.33333 1.03155 10.3798 0 11.6667 0H16.3333C17.6202 0 18.6667 1.03155 18.6667 2.3V4.025C18.6667 4.6598 18.144 5.175 17.5 5.175Z" fill="white"/>
<path d="M14.8283 15.387C14.6183 15.4675 14.315 15.525 14 15.525C13.685 15.525 13.3817 15.4675 13.1017 15.364L0 11.063V19.8375C0 21.5855 1.435 23 3.20833 23H24.7917C26.565 23 28 21.5855 28 19.8375V11.063L14.8283 15.387Z" fill="white"/>
<path d="M28 6.6125V9.246L14.28 13.754C14.1867 13.7885 14.0933 13.8 14 13.8C13.9067 13.8 13.8133 13.7885 13.72 13.754L0 9.246V6.6125C0 4.8645 1.435 3.45 3.20833 3.45H24.7917C26.565 3.45 28 4.8645 28 6.6125Z" fill="white"/>
</svg>
