<svg width="16" height="16" viewBox="0 0 16 16" fill="none" xmlns="http://www.w3.org/2000/svg">
<path d="M14.6134 7.73333C13.2667 4.60666 10.7334 2.66666 8.00004 2.66666C5.26671 2.66666 2.73338 4.60666 1.38671 7.73333C1.35 7.81744 1.33105 7.90823 1.33105 8C1.33105 8.09177 1.35 8.18255 1.38671 8.26666C2.73338 11.3933 5.26671 13.3333 8.00004 13.3333C10.7334 13.3333 13.2667 11.3933 14.6134 8.26666C14.6501 8.18255 14.669 8.09177 14.669 8C14.669 7.90823 14.6501 7.81744 14.6134 7.73333ZM8.00004 12C5.88671 12 3.88671 10.4733 2.73338 8C3.88671 5.52666 5.88671 4 8.00004 4C10.1134 4 12.1134 5.52666 13.2667 8C12.1134 10.4733 10.1134 12 8.00004 12ZM8.00004 5.33333C7.47263 5.33333 6.95706 5.48973 6.51852 5.78275C6.07999 6.07576 5.7382 6.49224 5.53637 6.97951C5.33453 7.46678 5.28172 8.00296 5.38462 8.52024C5.48751 9.03752 5.74149 9.51268 6.11443 9.88562C6.48737 10.2586 6.96252 10.5125 7.4798 10.6154C7.99709 10.7183 8.53326 10.6655 9.02053 10.4637C9.5078 10.2618 9.92428 9.92005 10.2173 9.48152C10.5103 9.04299 10.6667 8.52741 10.6667 8C10.6667 7.29275 10.3858 6.61448 9.88566 6.11438C9.38557 5.61428 8.70729 5.33333 8.00004 5.33333ZM8.00004 9.33333C7.73634 9.33333 7.47855 9.25513 7.25928 9.10862C7.04002 8.96211 6.86912 8.75388 6.76821 8.51024C6.66729 8.26661 6.64088 7.99852 6.69233 7.73988C6.74378 7.48124 6.87077 7.24366 7.05724 7.05719C7.24371 6.87072 7.48128 6.74373 7.73992 6.69228C7.99857 6.64084 8.26665 6.66724 8.51029 6.76816C8.75392 6.86907 8.96216 7.03997 9.10867 7.25924C9.25518 7.4785 9.33338 7.73629 9.33338 8C9.33338 8.35362 9.1929 8.69276 8.94285 8.94281C8.6928 9.19285 8.35367 9.33333 8.00004 9.33333Z" fill="#696363"/>
</svg>
