<svg width="24" height="26" viewBox="0 0 24 26" fill="none" xmlns="http://www.w3.org/2000/svg">
<path d="M11.7925 26H9.72362C8.6969 26 7.86165 25.1799 7.86165 24.1719V11.5781C7.86165 10.5701 8.6969 9.75 9.72362 9.75H11.7925C12.8192 9.75 13.6544 10.5701 13.6544 11.5781V24.1719C13.6544 25.1799 12.8191 26 11.7925 26Z" fill="white"/>
<path d="M3.93083 26H1.86197C0.835249 26 0 25.1799 0 24.1719V15.6406C0 14.6326 0.835249 13.8125 1.86197 13.8125H3.93083C4.95755 13.8125 5.7928 14.6326 5.7928 15.6406V24.1719C5.7928 25.1799 4.9575 26 3.93083 26Z" fill="white"/>
<path d="M19.6541 26H17.5853C16.5586 26 15.7233 25.1799 15.7233 24.1719V7.3125H14.5865C14.055 7.3125 13.5868 7.01797 13.3647 6.54387C13.1426 6.06978 13.2195 5.52916 13.5654 5.13292C13.5694 5.1284 13.5734 5.12388 13.5774 5.11946L18.0034 0.270258C18.1604 0.0982617 18.3845 0 18.6197 0C18.8549 0 19.079 0.0982617 19.236 0.270258L23.662 5.11946C23.666 5.12388 23.67 5.1284 23.674 5.13292C24.0199 5.52911 24.0968 6.06978 23.8747 6.54387C23.6526 7.01797 23.1844 7.3125 22.6529 7.3125H21.5161V24.1719C21.5161 25.1799 20.6808 26 19.6541 26Z" fill="white"/>
</svg>
