<svg width="16" height="16" viewBox="0 0 16 16" fill="none" xmlns="http://www.w3.org/2000/svg">
<path d="M5.80671 5.14L7.33337 3.60666V10C7.33337 10.1768 7.40361 10.3464 7.52864 10.4714C7.65366 10.5964 7.82323 10.6667 8.00004 10.6667C8.17685 10.6667 8.34642 10.5964 8.47145 10.4714C8.59647 10.3464 8.66671 10.1768 8.66671 10V3.60666L10.1934 5.14C10.2553 5.20248 10.3291 5.25208 10.4103 5.28592C10.4916 5.31977 10.5787 5.3372 10.6667 5.3372C10.7547 5.3372 10.8419 5.31977 10.9231 5.28592C11.0043 5.25208 11.0781 5.20248 11.14 5.14C11.2025 5.07802 11.2521 5.00429 11.286 4.92305C11.3198 4.84181 11.3372 4.75467 11.3372 4.66666C11.3372 4.57866 11.3198 4.49152 11.286 4.41028C11.2521 4.32904 11.2025 4.25531 11.14 4.19333L8.47337 1.52666C8.40997 1.46597 8.33521 1.41839 8.25337 1.38666C8.09107 1.31998 7.90902 1.31998 7.74671 1.38666C7.66487 1.41839 7.59011 1.46597 7.52671 1.52666L4.86004 4.19333C4.79788 4.25549 4.74857 4.32928 4.71493 4.4105C4.68129 4.49171 4.66398 4.57876 4.66398 4.66666C4.66398 4.75457 4.68129 4.84162 4.71493 4.92283C4.74857 5.00404 4.79788 5.07784 4.86004 5.14C4.9222 5.20216 4.99599 5.25146 5.07721 5.2851C5.15842 5.31874 5.24547 5.33606 5.33337 5.33606C5.42128 5.33606 5.50833 5.31874 5.58954 5.2851C5.67076 5.25146 5.74455 5.20216 5.80671 5.14ZM14 9.33333C13.8232 9.33333 13.6537 9.40357 13.5286 9.52859C13.4036 9.65362 13.3334 9.82319 13.3334 10V12.6667C13.3334 12.8435 13.2631 13.013 13.1381 13.1381C13.0131 13.2631 12.8435 13.3333 12.6667 13.3333H3.33337C3.15656 13.3333 2.98699 13.2631 2.86197 13.1381C2.73695 13.013 2.66671 12.8435 2.66671 12.6667V10C2.66671 9.82319 2.59647 9.65362 2.47145 9.52859C2.34642 9.40357 2.17685 9.33333 2.00004 9.33333C1.82323 9.33333 1.65366 9.40357 1.52864 9.52859C1.40361 9.65362 1.33337 9.82319 1.33337 10V12.6667C1.33337 13.1971 1.54409 13.7058 1.91916 14.0809C2.29423 14.456 2.80294 14.6667 3.33337 14.6667H12.6667C13.1971 14.6667 13.7058 14.456 14.0809 14.0809C14.456 13.7058 14.6667 13.1971 14.6667 12.6667V10C14.6667 9.82319 14.5965 9.65362 14.4714 9.52859C14.3464 9.40357 14.1769 9.33333 14 9.33333Z" fill="#A09EFF"/>
</svg>
